<?xml version="1.0" encoding="utf-8"?>
<!-- Generator: Adobe Illustrator 16.0.3, SVG Export Plug-In . SVG Version: 6.00 Build 0)  -->
<!DOCTYPE svg PUBLIC "-//W3C//DTD SVG 1.1//EN" "http://www.w3.org/Graphics/SVG/1.1/DTD/svg11.dtd">
<svg version="1.1" id="Layer_1" xmlns="http://www.w3.org/2000/svg" xmlns:xlink="http://www.w3.org/1999/xlink" x="0px" y="0px"
	 width="2200px" height="1200px" viewBox="0 0 2200 1200" enable-background="new 0 0 2200 1200" xml:space="preserve">
<g>
	<polygon fill="none" stroke="#2D3233" stroke-linecap="round" stroke-linejoin="round" stroke-miterlimit="10" points="
		254.463,1461.705 3.43,1461.692 -122.058,1244.34 3.43,1027.013 254.394,1027.022 254.445,1027.036 379.961,1244.365 
		254.52,1461.682 	"/>
	<polygon fill="none" stroke="#2D3233" stroke-linecap="round" stroke-linejoin="round" stroke-miterlimit="10" points="
		23.791,1426.429 -81.338,1244.341 23.789,1062.278 234.079,1062.284 339.241,1244.368 234.146,1426.44 	"/>
	<polygon fill="none" stroke="#2D3233" stroke-linecap="round" stroke-linejoin="round" stroke-miterlimit="10" points="
		-59.313,1353.095 128.949,1027.013 317.218,1353.095 	"/>
	<polygon fill="none" stroke="#2D3233" stroke-linecap="round" stroke-linejoin="round" stroke-miterlimit="10" points="
		1.766,1317.831 128.95,1097.541 256.137,1317.831 	"/>
</g>
<g>
	<polygon fill="none" stroke="#2D3233" stroke-linecap="round" stroke-linejoin="round" stroke-miterlimit="10" points="
		254.45,1027.013 505.483,1027.028 630.972,1244.372 505.483,1461.7 254.52,1461.692 254.469,1461.682 128.952,1244.352 
		254.394,1027.032 	"/>
	<polygon fill="none" stroke="#2D3233" stroke-linecap="round" stroke-linejoin="round" stroke-miterlimit="10" points="
		274.831,1426.429 169.672,1244.347 274.767,1062.278 485.123,1062.29 590.252,1244.371 485.125,1426.436 	"/>
	<polygon fill="none" stroke="#2D3233" stroke-linecap="round" stroke-linejoin="round" stroke-miterlimit="10" points="
		568.227,1135.62 379.964,1461.7 191.698,1135.62 	"/>
	<polygon fill="none" stroke="#2D3233" stroke-linecap="round" stroke-linejoin="round" stroke-miterlimit="10" points="
		252.778,1170.885 507.148,1170.885 379.964,1391.172 	"/>
</g>
<g>
	<polygon fill="none" stroke="#2D3233" stroke-linecap="round" stroke-linejoin="round" stroke-miterlimit="10" points="
		756.469,1027.013 1007.502,1027.028 1132.991,1244.372 1007.502,1461.7 756.54,1461.692 756.488,1461.682 630.972,1244.352 
		756.413,1027.032 	"/>
	<polygon fill="none" stroke="#2D3233" stroke-linecap="round" stroke-linejoin="round" stroke-miterlimit="10" points="
		776.85,1426.429 671.692,1244.347 776.786,1062.278 987.142,1062.29 1092.271,1244.371 987.144,1426.436 	"/>
	<polygon fill="none" stroke="#2D3233" stroke-linecap="round" stroke-linejoin="round" stroke-miterlimit="10" points="
		1070.245,1135.62 881.983,1461.7 693.716,1135.62 	"/>
	<polygon fill="none" stroke="#2D3233" stroke-linecap="round" stroke-linejoin="round" stroke-miterlimit="10" points="
		754.796,1170.885 1009.166,1170.885 881.982,1391.172 	"/>
</g>
<g>
	<polygon fill="none" stroke="#2D3233" stroke-linecap="round" stroke-linejoin="round" stroke-miterlimit="10" points="
		756.483,1461.705 505.451,1461.692 379.961,1244.34 505.451,1027.013 756.413,1027.022 756.465,1027.036 881.982,1244.365 
		756.54,1461.682 	"/>
	<polygon fill="none" stroke="#2D3233" stroke-linecap="round" stroke-linejoin="round" stroke-miterlimit="10" points="
		525.811,1426.429 420.681,1244.341 525.809,1062.278 736.1,1062.284 841.261,1244.368 736.165,1426.44 	"/>
	<polygon fill="none" stroke="#2D3233" stroke-linecap="round" stroke-linejoin="round" stroke-miterlimit="10" points="
		442.707,1353.095 630.97,1027.013 819.236,1353.095 	"/>
	<polygon fill="none" stroke="#2D3233" stroke-linecap="round" stroke-linejoin="round" stroke-miterlimit="10" points="
		503.786,1317.831 630.97,1097.541 758.156,1317.831 	"/>
</g>
<g>
	<polygon fill="none" stroke="#2D3233" stroke-linecap="round" stroke-linejoin="round" stroke-miterlimit="10" points="
		254.463,1027.013 3.43,1026.999 -122.058,809.652 3.43,592.323 254.394,592.331 254.445,592.343 379.961,809.676 254.52,1026.994 	
		"/>
	<polygon fill="none" stroke="#2D3233" stroke-linecap="round" stroke-linejoin="round" stroke-miterlimit="10" points="
		23.79,991.736 -81.338,809.654 23.789,627.588 234.081,627.594 339.241,809.681 234.148,991.747 	"/>
	<polygon fill="none" stroke="#2D3233" stroke-linecap="round" stroke-linejoin="round" stroke-miterlimit="10" points="
		-59.313,918.408 128.949,592.323 317.218,918.408 	"/>
	<polygon fill="none" stroke="#2D3233" stroke-linecap="round" stroke-linejoin="round" stroke-miterlimit="10" points="
		1.766,883.144 128.95,662.852 256.137,883.144 	"/>
</g>
<g>
	<polygon fill="none" stroke="#2D3233" stroke-linecap="round" stroke-linejoin="round" stroke-miterlimit="10" points="
		254.45,592.32 505.483,592.335 630.972,809.684 505.483,1027.013 254.52,1027.003 254.469,1026.99 128.952,809.662 
		254.394,592.342 	"/>
	<polygon fill="none" stroke="#2D3233" stroke-linecap="round" stroke-linejoin="round" stroke-miterlimit="10" points="
		274.833,991.74 169.672,809.657 274.768,627.585 485.123,627.598 590.252,809.683 485.125,991.747 	"/>
	<polygon fill="none" stroke="#2D3233" stroke-linecap="round" stroke-linejoin="round" stroke-miterlimit="10" points="
		568.227,700.93 379.964,1027.013 191.698,700.93 	"/>
	<polygon fill="none" stroke="#2D3233" stroke-linecap="round" stroke-linejoin="round" stroke-miterlimit="10" points="
		252.778,736.195 507.148,736.195 379.964,956.485 	"/>
</g>
<g>
	<polygon fill="none" stroke="#2D3233" stroke-linecap="round" stroke-linejoin="round" stroke-miterlimit="10" points="
		756.469,592.32 1007.502,592.335 1132.991,809.684 1007.502,1027.013 756.54,1027.003 756.488,1026.99 630.972,809.662 
		756.413,592.342 	"/>
	<polygon fill="none" stroke="#2D3233" stroke-linecap="round" stroke-linejoin="round" stroke-miterlimit="10" points="
		776.852,991.74 671.692,809.657 776.787,627.585 987.142,627.598 1092.271,809.683 987.144,991.747 	"/>
	<polygon fill="none" stroke="#2D3233" stroke-linecap="round" stroke-linejoin="round" stroke-miterlimit="10" points="
		1070.245,700.93 881.983,1027.013 693.716,700.93 	"/>
	<polygon fill="none" stroke="#2D3233" stroke-linecap="round" stroke-linejoin="round" stroke-miterlimit="10" points="
		754.796,736.195 1009.166,736.195 881.982,956.485 	"/>
</g>
<g>
	<polygon fill="none" stroke="#2D3233" stroke-linecap="round" stroke-linejoin="round" stroke-miterlimit="10" points="
		756.483,1027.013 505.451,1026.999 379.961,809.652 505.451,592.323 756.413,592.331 756.465,592.343 881.982,809.676 
		756.54,1026.994 	"/>
	<polygon fill="none" stroke="#2D3233" stroke-linecap="round" stroke-linejoin="round" stroke-miterlimit="10" points="
		525.811,991.736 420.681,809.654 525.809,627.588 736.101,627.594 841.261,809.681 736.167,991.747 	"/>
	<polygon fill="none" stroke="#2D3233" stroke-linecap="round" stroke-linejoin="round" stroke-miterlimit="10" points="
		442.707,918.408 630.97,592.323 819.236,918.408 	"/>
	<polygon fill="none" stroke="#2D3233" stroke-linecap="round" stroke-linejoin="round" stroke-miterlimit="10" points="
		503.786,883.144 630.97,662.852 758.156,883.144 	"/>
</g>
<g>
	<polygon fill="none" stroke="#2D3233" stroke-linecap="round" stroke-linejoin="round" stroke-miterlimit="10" points="
		1384.007,1244.362 1132.974,1244.347 1007.486,1026.996 1132.974,809.67 1383.938,809.678 1383.99,809.691 1509.504,1027.02 
		1384.062,1244.339 	"/>
	<polygon fill="none" stroke="#2D3233" stroke-linecap="round" stroke-linejoin="round" stroke-miterlimit="10" points="
		1153.335,1209.084 1048.206,1026.997 1153.333,844.936 1363.626,844.942 1468.784,1027.024 1363.687,1209.097 	"/>
	<polygon fill="none" stroke="#2D3233" stroke-linecap="round" stroke-linejoin="round" stroke-miterlimit="10" points="
		1070.231,1135.75 1258.492,809.67 1446.76,1135.75 	"/>
	<polygon fill="none" stroke="#2D3233" stroke-linecap="round" stroke-linejoin="round" stroke-miterlimit="10" points="
		1131.31,1100.487 1258.493,880.198 1385.68,1100.487 	"/>
</g>
<g>
	<polygon fill="none" stroke="#2D3233" stroke-linecap="round" stroke-linejoin="round" stroke-miterlimit="10" points="
		1383.993,809.67 1635.025,809.682 1760.513,1027.03 1635.025,1244.358 1384.062,1244.347 1384.01,1244.339 1258.495,1027.006 
		1383.938,809.688 	"/>
	<polygon fill="none" stroke="#2D3233" stroke-linecap="round" stroke-linejoin="round" stroke-miterlimit="10" points="
		1404.372,1209.084 1299.215,1027.001 1404.309,844.936 1614.665,844.945 1719.794,1027.029 1614.668,1209.092 	"/>
	<polygon fill="none" stroke="#2D3233" stroke-linecap="round" stroke-linejoin="round" stroke-miterlimit="10" points="
		1697.768,918.274 1509.507,1244.358 1321.242,918.274 	"/>
	<polygon fill="none" stroke="#2D3233" stroke-linecap="round" stroke-linejoin="round" stroke-miterlimit="10" points="
		1382.322,953.537 1636.69,953.537 1509.507,1173.829 	"/>
</g>
<g>
	<polygon fill="none" stroke="#2D3233" stroke-linecap="round" stroke-linejoin="round" stroke-miterlimit="10" points="
		1886.013,809.67 2137.045,809.682 2262.533,1027.03 2137.045,1244.358 1886.081,1244.347 1886.031,1244.339 1760.513,1027.006 
		1885.956,809.688 	"/>
	<polygon fill="none" stroke="#2D3233" stroke-linecap="round" stroke-linejoin="round" stroke-miterlimit="10" points="
		1906.392,1209.084 1801.234,1027.001 1906.327,844.936 2116.684,844.945 2221.813,1027.029 2116.686,1209.092 	"/>
	<polygon fill="none" stroke="#2D3233" stroke-linecap="round" stroke-linejoin="round" stroke-miterlimit="10" points="
		2199.788,918.274 2011.526,1244.358 1823.26,918.274 	"/>
	<polygon fill="none" stroke="#2D3233" stroke-linecap="round" stroke-linejoin="round" stroke-miterlimit="10" points="
		1884.339,953.537 2138.71,953.537 2011.526,1173.829 	"/>
</g>
<g>
	<polygon fill="none" stroke="#2D3233" stroke-linecap="round" stroke-linejoin="round" stroke-miterlimit="10" points="
		1886.026,1244.362 1634.994,1244.347 1509.504,1026.996 1634.994,809.67 1885.956,809.678 1886.007,809.691 2011.524,1027.02 
		1886.081,1244.339 	"/>
	<polygon fill="none" stroke="#2D3233" stroke-linecap="round" stroke-linejoin="round" stroke-miterlimit="10" points="
		1655.354,1209.084 1550.224,1026.997 1655.351,844.936 1865.642,844.942 1970.804,1027.024 1865.707,1209.097 	"/>
	<polygon fill="none" stroke="#2D3233" stroke-linecap="round" stroke-linejoin="round" stroke-miterlimit="10" points="
		1572.251,1135.75 1760.511,809.67 1948.778,1135.75 	"/>
	<polygon fill="none" stroke="#2D3233" stroke-linecap="round" stroke-linejoin="round" stroke-miterlimit="10" points="
		1633.329,1100.487 1760.511,880.198 1887.699,1100.487 	"/>
</g>
<g>
	<polygon fill="none" stroke="#2D3233" stroke-linecap="round" stroke-linejoin="round" stroke-miterlimit="10" points="
		1384.007,809.667 1132.974,809.652 1007.486,592.302 1132.974,374.974 1383.938,374.984 1383.99,374.998 1509.504,592.324 
		1384.062,809.644 	"/>
	<polygon fill="none" stroke="#2D3233" stroke-linecap="round" stroke-linejoin="round" stroke-miterlimit="10" points="
		1153.335,774.389 1048.206,592.303 1153.333,410.239 1363.625,410.247 1468.784,592.329 1363.687,774.402 	"/>
	<polygon fill="none" stroke="#2D3233" stroke-linecap="round" stroke-linejoin="round" stroke-miterlimit="10" points="
		1070.231,701.055 1258.492,374.974 1446.76,701.055 	"/>
	<polygon fill="none" stroke="#2D3233" stroke-linecap="round" stroke-linejoin="round" stroke-miterlimit="10" points="
		1131.31,665.791 1258.493,445.502 1385.68,665.791 	"/>
</g>
<g>
	<polygon fill="none" stroke="#2D3233" stroke-linecap="round" stroke-linejoin="round" stroke-miterlimit="10" points="
		1383.993,374.974 1635.025,374.987 1760.513,592.335 1635.025,809.662 1384.062,809.652 1384.01,809.644 1258.495,592.312 
		1383.938,374.992 	"/>
	<polygon fill="none" stroke="#2D3233" stroke-linecap="round" stroke-linejoin="round" stroke-miterlimit="10" points="
		1404.372,774.389 1299.215,592.307 1404.31,410.24 1614.665,410.25 1719.794,592.334 1614.668,774.397 	"/>
	<polygon fill="none" stroke="#2D3233" stroke-linecap="round" stroke-linejoin="round" stroke-miterlimit="10" points="
		1697.768,483.581 1509.507,809.662 1321.242,483.581 	"/>
	<polygon fill="none" stroke="#2D3233" stroke-linecap="round" stroke-linejoin="round" stroke-miterlimit="10" points="
		1382.322,518.845 1636.69,518.845 1509.507,739.134 	"/>
</g>
<g>
	<polygon fill="none" stroke="#2D3233" stroke-linecap="round" stroke-linejoin="round" stroke-miterlimit="10" points="
		1886.013,374.974 2137.045,374.987 2262.533,592.335 2137.045,809.662 1886.081,809.652 1886.031,809.644 1760.513,592.312 
		1885.956,374.992 	"/>
	<polygon fill="none" stroke="#2D3233" stroke-linecap="round" stroke-linejoin="round" stroke-miterlimit="10" points="
		1906.392,774.389 1801.234,592.307 1906.328,410.24 2116.684,410.25 2221.813,592.334 2116.686,774.397 	"/>
	<polygon fill="none" stroke="#2D3233" stroke-linecap="round" stroke-linejoin="round" stroke-miterlimit="10" points="
		2199.788,483.581 2011.526,809.662 1823.26,483.581 	"/>
	<polygon fill="none" stroke="#2D3233" stroke-linecap="round" stroke-linejoin="round" stroke-miterlimit="10" points="
		1884.339,518.845 2138.71,518.845 2011.526,739.134 	"/>
</g>
<g>
	<polygon fill="none" stroke="#2D3233" stroke-linecap="round" stroke-linejoin="round" stroke-miterlimit="10" points="
		1886.026,809.667 1634.994,809.652 1509.504,592.302 1634.994,374.974 1885.956,374.984 1886.007,374.998 2011.524,592.324 
		1886.081,809.644 	"/>
	<polygon fill="none" stroke="#2D3233" stroke-linecap="round" stroke-linejoin="round" stroke-miterlimit="10" points="
		1655.354,774.389 1550.224,592.303 1655.351,410.239 1865.641,410.247 1970.804,592.329 1865.707,774.402 	"/>
	<polygon fill="none" stroke="#2D3233" stroke-linecap="round" stroke-linejoin="round" stroke-miterlimit="10" points="
		1572.251,701.055 1760.511,374.974 1948.778,701.055 	"/>
	<polygon fill="none" stroke="#2D3233" stroke-linecap="round" stroke-linejoin="round" stroke-miterlimit="10" points="
		1633.329,665.791 1760.511,445.502 1887.699,665.791 	"/>
</g>
<g>
	<polygon fill="none" stroke="#2D3233" stroke-linecap="round" stroke-linejoin="round" stroke-miterlimit="10" points="
		254.463,592.323 3.43,592.311 -122.058,374.958 3.43,157.631 254.394,157.639 254.445,157.653 379.961,374.98 254.52,592.299 	"/>
	<polygon fill="none" stroke="#2D3233" stroke-linecap="round" stroke-linejoin="round" stroke-miterlimit="10" points="
		23.79,557.048 -81.338,374.959 23.789,192.895 234.08,192.902 339.241,374.985 234.145,557.058 	"/>
	<polygon fill="none" stroke="#2D3233" stroke-linecap="round" stroke-linejoin="round" stroke-miterlimit="10" points="
		-59.313,483.711 128.949,157.631 317.218,483.711 	"/>
	<polygon fill="none" stroke="#2D3233" stroke-linecap="round" stroke-linejoin="round" stroke-miterlimit="10" points="
		1.766,448.447 128.95,228.158 256.137,448.447 	"/>
</g>
<g>
	<polygon fill="none" stroke="#2D3233" stroke-linecap="round" stroke-linejoin="round" stroke-miterlimit="10" points="
		254.45,157.631 505.483,157.643 630.972,374.991 505.483,592.318 254.52,592.311 254.469,592.299 128.952,374.966 254.394,157.648 
			"/>
	<polygon fill="none" stroke="#2D3233" stroke-linecap="round" stroke-linejoin="round" stroke-miterlimit="10" points="
		274.832,557.048 169.672,374.962 274.765,192.896 485.123,192.906 590.252,374.991 485.125,557.053 	"/>
	<polygon fill="none" stroke="#2D3233" stroke-linecap="round" stroke-linejoin="round" stroke-miterlimit="10" points="
		568.227,266.237 379.964,592.318 191.698,266.237 	"/>
	<polygon fill="none" stroke="#2D3233" stroke-linecap="round" stroke-linejoin="round" stroke-miterlimit="10" points="
		252.778,301.501 507.148,301.501 379.964,521.79 	"/>
</g>
<g>
	<polygon fill="none" stroke="#2D3233" stroke-linecap="round" stroke-linejoin="round" stroke-miterlimit="10" points="
		756.469,157.631 1007.502,157.643 1132.991,374.991 1007.502,592.318 756.54,592.311 756.488,592.299 630.972,374.966 
		756.413,157.648 	"/>
	<polygon fill="none" stroke="#2D3233" stroke-linecap="round" stroke-linejoin="round" stroke-miterlimit="10" points="
		776.851,557.048 671.692,374.962 776.784,192.896 987.142,192.906 1092.271,374.991 987.144,557.053 	"/>
	<polygon fill="none" stroke="#2D3233" stroke-linecap="round" stroke-linejoin="round" stroke-miterlimit="10" points="
		1070.245,266.237 881.983,592.318 693.716,266.237 	"/>
	<polygon fill="none" stroke="#2D3233" stroke-linecap="round" stroke-linejoin="round" stroke-miterlimit="10" points="
		754.796,301.501 1009.166,301.501 881.982,521.79 	"/>
</g>
<g>
	<polygon fill="none" stroke="#2D3233" stroke-linecap="round" stroke-linejoin="round" stroke-miterlimit="10" points="
		756.483,592.323 505.451,592.311 379.961,374.958 505.451,157.631 756.413,157.639 756.465,157.653 881.982,374.98 756.54,592.299 
			"/>
	<polygon fill="none" stroke="#2D3233" stroke-linecap="round" stroke-linejoin="round" stroke-miterlimit="10" points="
		525.811,557.048 420.681,374.959 525.809,192.895 736.1,192.902 841.261,374.985 736.165,557.058 	"/>
	<polygon fill="none" stroke="#2D3233" stroke-linecap="round" stroke-linejoin="round" stroke-miterlimit="10" points="
		442.707,483.711 630.97,157.631 819.236,483.711 	"/>
	<polygon fill="none" stroke="#2D3233" stroke-linecap="round" stroke-linejoin="round" stroke-miterlimit="10" points="
		503.786,448.447 630.97,228.158 758.156,448.447 	"/>
</g>
<g>
	<polygon fill="none" stroke="#2D3233" stroke-linecap="round" stroke-linejoin="round" stroke-miterlimit="10" points="
		254.463,157.631 3.43,157.616 -122.058,-59.73 3.43,-277.06 254.394,-277.051 254.445,-277.04 379.961,-59.707 254.52,157.611 	"/>
	<polygon fill="none" stroke="#2D3233" stroke-linecap="round" stroke-linejoin="round" stroke-miterlimit="10" points="
		23.79,122.353 -81.338,-59.729 23.789,-241.795 234.082,-241.787 339.241,-59.702 234.148,122.365 	"/>
	<polygon fill="none" stroke="#2D3233" stroke-linecap="round" stroke-linejoin="round" stroke-miterlimit="10" points="
		-59.313,49.023 128.949,-277.06 317.218,49.023 	"/>
	<polygon fill="none" stroke="#2D3233" stroke-linecap="round" stroke-linejoin="round" stroke-miterlimit="10" points="
		1.766,13.759 128.95,-206.532 256.137,13.759 	"/>
</g>
<g>
	<polygon fill="none" stroke="#2D3233" stroke-linecap="round" stroke-linejoin="round" stroke-miterlimit="10" points="
		254.45,-277.062 505.483,-277.048 630.972,-59.698 505.483,157.631 254.52,157.621 254.469,157.607 128.952,-59.722 
		254.394,-277.041 	"/>
	<polygon fill="none" stroke="#2D3233" stroke-linecap="round" stroke-linejoin="round" stroke-miterlimit="10" points="
		274.834,122.358 169.672,-59.726 274.767,-241.797 485.123,-241.785 590.252,-59.699 485.125,122.366 	"/>
	<polygon fill="none" stroke="#2D3233" stroke-linecap="round" stroke-linejoin="round" stroke-miterlimit="10" points="
		568.227,-168.453 379.964,157.631 191.698,-168.453 	"/>
	<polygon fill="none" stroke="#2D3233" stroke-linecap="round" stroke-linejoin="round" stroke-miterlimit="10" points="
		252.777,-133.189 507.148,-133.189 379.964,87.103 	"/>
</g>
<g>
	<polygon fill="none" stroke="#2D3233" stroke-linecap="round" stroke-linejoin="round" stroke-miterlimit="10" points="
		756.469,-277.062 1007.502,-277.048 1132.991,-59.698 1007.502,157.631 756.54,157.621 756.488,157.607 630.972,-59.722 
		756.413,-277.041 	"/>
	<polygon fill="none" stroke="#2D3233" stroke-linecap="round" stroke-linejoin="round" stroke-miterlimit="10" points="
		776.853,122.358 671.692,-59.726 776.786,-241.797 987.142,-241.785 1092.271,-59.699 987.144,122.366 	"/>
	<polygon fill="none" stroke="#2D3233" stroke-linecap="round" stroke-linejoin="round" stroke-miterlimit="10" points="
		1070.245,-168.453 881.983,157.631 693.716,-168.453 	"/>
	<polygon fill="none" stroke="#2D3233" stroke-linecap="round" stroke-linejoin="round" stroke-miterlimit="10" points="
		754.796,-133.189 1009.166,-133.189 881.982,87.103 	"/>
</g>
<g>
	<polygon fill="none" stroke="#2D3233" stroke-linecap="round" stroke-linejoin="round" stroke-miterlimit="10" points="
		756.483,157.631 505.451,157.616 379.961,-59.73 505.451,-277.06 756.413,-277.051 756.465,-277.04 881.982,-59.707 
		756.54,157.611 	"/>
	<polygon fill="none" stroke="#2D3233" stroke-linecap="round" stroke-linejoin="round" stroke-miterlimit="10" points="
		525.811,122.353 420.681,-59.729 525.809,-241.795 736.102,-241.787 841.261,-59.702 736.167,122.365 	"/>
	<polygon fill="none" stroke="#2D3233" stroke-linecap="round" stroke-linejoin="round" stroke-miterlimit="10" points="
		442.707,49.023 630.97,-277.06 819.236,49.023 	"/>
	<polygon fill="none" stroke="#2D3233" stroke-linecap="round" stroke-linejoin="round" stroke-miterlimit="10" points="
		503.786,13.759 630.97,-206.531 758.156,13.759 	"/>
</g>
<g>
	<polygon fill="none" stroke="#2D3233" stroke-linecap="round" stroke-linejoin="round" stroke-miterlimit="10" points="
		1384.007,374.978 1132.974,374.965 1007.486,157.614 1132.974,-59.715 1383.938,-59.706 1383.99,-59.691 1509.504,157.636 
		1384.062,374.956 	"/>
	<polygon fill="none" stroke="#2D3233" stroke-linecap="round" stroke-linejoin="round" stroke-miterlimit="10" points="
		1153.335,339.702 1048.206,157.615 1153.333,-24.45 1363.625,-24.442 1468.784,157.641 1363.687,339.713 	"/>
	<polygon fill="none" stroke="#2D3233" stroke-linecap="round" stroke-linejoin="round" stroke-miterlimit="10" points="
		1070.231,266.367 1258.492,-59.715 1446.76,266.367 	"/>
	<polygon fill="none" stroke="#2D3233" stroke-linecap="round" stroke-linejoin="round" stroke-miterlimit="10" points="
		1131.309,231.103 1258.493,10.813 1385.68,231.103 	"/>
</g>
<g>
	<polygon fill="none" stroke="#2D3233" stroke-linecap="round" stroke-linejoin="round" stroke-miterlimit="10" points="
		1383.993,-59.715 1635.025,-59.7 1760.513,157.646 1635.025,374.974 1384.062,374.965 1384.01,374.956 1258.495,157.623 
		1383.938,-59.696 	"/>
	<polygon fill="none" stroke="#2D3233" stroke-linecap="round" stroke-linejoin="round" stroke-miterlimit="10" points="
		1404.372,339.701 1299.215,157.618 1404.31,-24.45 1614.665,-24.437 1719.794,157.645 1614.668,339.71 	"/>
	<polygon fill="none" stroke="#2D3233" stroke-linecap="round" stroke-linejoin="round" stroke-miterlimit="10" points="
		1697.768,48.892 1509.507,374.974 1321.242,48.892 	"/>
	<polygon fill="none" stroke="#2D3233" stroke-linecap="round" stroke-linejoin="round" stroke-miterlimit="10" points="
		1382.322,84.156 1636.69,84.156 1509.507,304.446 	"/>
</g>
<g>
	<polygon fill="none" stroke="#2D3233" stroke-linecap="round" stroke-linejoin="round" stroke-miterlimit="10" points="
		1886.013,-59.715 2137.045,-59.7 2262.533,157.646 2137.045,374.974 1886.081,374.965 1886.031,374.956 1760.513,157.623 
		1885.956,-59.696 	"/>
	<polygon fill="none" stroke="#2D3233" stroke-linecap="round" stroke-linejoin="round" stroke-miterlimit="10" points="
		1906.392,339.701 1801.234,157.618 1906.328,-24.45 2116.684,-24.437 2221.813,157.645 2116.686,339.71 	"/>
	<polygon fill="none" stroke="#2D3233" stroke-linecap="round" stroke-linejoin="round" stroke-miterlimit="10" points="
		2199.788,48.892 2011.526,374.974 1823.26,48.892 	"/>
	<polygon fill="none" stroke="#2D3233" stroke-linecap="round" stroke-linejoin="round" stroke-miterlimit="10" points="
		1884.339,84.156 2138.71,84.156 2011.526,304.446 	"/>
</g>
<g>
	<polygon fill="none" stroke="#2D3233" stroke-linecap="round" stroke-linejoin="round" stroke-miterlimit="10" points="
		1886.026,374.978 1634.994,374.965 1509.504,157.614 1634.994,-59.715 1885.956,-59.706 1886.007,-59.691 2011.524,157.636 
		1886.081,374.956 	"/>
	<polygon fill="none" stroke="#2D3233" stroke-linecap="round" stroke-linejoin="round" stroke-miterlimit="10" points="
		1655.354,339.702 1550.224,157.615 1655.351,-24.45 1865.641,-24.442 1970.804,157.642 1865.708,339.713 	"/>
	<polygon fill="none" stroke="#2D3233" stroke-linecap="round" stroke-linejoin="round" stroke-miterlimit="10" points="
		1572.251,266.367 1760.511,-59.715 1948.778,266.367 	"/>
	<polygon fill="none" stroke="#2D3233" stroke-linecap="round" stroke-linejoin="round" stroke-miterlimit="10" points="
		1633.329,231.103 1760.511,10.813 1887.699,231.103 	"/>
</g>
<g>
	<polygon fill="none" stroke="#2D3233" stroke-linecap="round" stroke-linejoin="round" stroke-miterlimit="10" points="
		1384.007,-59.718 1132.974,-59.73 1007.486,-277.081 1132.974,-494.409 1383.938,-494.4 1383.99,-494.386 1509.504,-277.057 
		1384.062,-59.739 	"/>
	<polygon fill="none" stroke="#2D3233" stroke-linecap="round" stroke-linejoin="round" stroke-miterlimit="10" points="
		1153.335,-94.993 1048.206,-277.08 1153.333,-459.144 1363.625,-459.136 1468.784,-277.052 1363.687,-94.983 	"/>
	<polygon fill="none" stroke="#2D3233" stroke-linecap="round" stroke-linejoin="round" stroke-miterlimit="10" points="
		1070.231,-168.328 1258.492,-494.409 1446.76,-168.328 	"/>
	<polygon fill="none" stroke="#2D3233" stroke-linecap="round" stroke-linejoin="round" stroke-miterlimit="10" points="
		1131.31,-203.592 1258.493,-423.882 1385.68,-203.592 	"/>
</g>
<g>
	<polygon fill="none" stroke="#2D3233" stroke-linecap="round" stroke-linejoin="round" stroke-miterlimit="10" points="
		1383.993,-494.409 1635.025,-494.396 1760.513,-277.048 1635.025,-59.722 1384.062,-59.73 1384.01,-59.739 1258.495,-277.072 
		1383.938,-494.39 	"/>
	<polygon fill="none" stroke="#2D3233" stroke-linecap="round" stroke-linejoin="round" stroke-miterlimit="10" points="
		1404.372,-94.993 1299.215,-277.077 1404.31,-459.144 1614.665,-459.134 1719.794,-277.05 1614.668,-94.987 	"/>
	<polygon fill="none" stroke="#2D3233" stroke-linecap="round" stroke-linejoin="round" stroke-miterlimit="10" points="
		1697.768,-385.803 1509.507,-59.722 1321.242,-385.803 	"/>
	<polygon fill="none" stroke="#2D3233" stroke-linecap="round" stroke-linejoin="round" stroke-miterlimit="10" points="
		1382.322,-350.539 1636.69,-350.539 1509.507,-130.25 	"/>
</g>
<g>
	<polygon fill="none" stroke="#2D3233" stroke-linecap="round" stroke-linejoin="round" stroke-miterlimit="10" points="
		1886.013,-494.409 2137.045,-494.396 2262.533,-277.048 2137.045,-59.722 1886.081,-59.73 1886.031,-59.739 1760.513,-277.072 
		1885.956,-494.39 	"/>
	<polygon fill="none" stroke="#2D3233" stroke-linecap="round" stroke-linejoin="round" stroke-miterlimit="10" points="
		1906.392,-94.993 1801.234,-277.077 1906.328,-459.144 2116.684,-459.134 2221.813,-277.05 2116.686,-94.987 	"/>
	<polygon fill="none" stroke="#2D3233" stroke-linecap="round" stroke-linejoin="round" stroke-miterlimit="10" points="
		2199.788,-385.803 2011.526,-59.722 1823.26,-385.803 	"/>
	<polygon fill="none" stroke="#2D3233" stroke-linecap="round" stroke-linejoin="round" stroke-miterlimit="10" points="
		1884.339,-350.539 2138.71,-350.539 2011.526,-130.249 	"/>
</g>
<g>
	<polygon fill="none" stroke="#2D3233" stroke-linecap="round" stroke-linejoin="round" stroke-miterlimit="10" points="
		1886.026,-59.718 1634.994,-59.73 1509.504,-277.081 1634.994,-494.409 1885.956,-494.4 1886.007,-494.386 2011.524,-277.057 
		1886.081,-59.739 	"/>
	<polygon fill="none" stroke="#2D3233" stroke-linecap="round" stroke-linejoin="round" stroke-miterlimit="10" points="
		1655.354,-94.993 1550.224,-277.08 1655.351,-459.144 1865.642,-459.136 1970.804,-277.052 1865.708,-94.983 	"/>
	<polygon fill="none" stroke="#2D3233" stroke-linecap="round" stroke-linejoin="round" stroke-miterlimit="10" points="
		1572.251,-168.328 1760.511,-494.409 1948.778,-168.328 	"/>
	<polygon fill="none" stroke="#2D3233" stroke-linecap="round" stroke-linejoin="round" stroke-miterlimit="10" points="
		1633.329,-203.592 1760.511,-423.881 1887.699,-203.592 	"/>
</g>
</svg>
