<?xml version="1.0" encoding="utf-8"?>
<!-- Generator: Adobe Illustrator 16.0.3, SVG Export Plug-In . SVG Version: 6.00 Build 0)  -->
<!DOCTYPE svg PUBLIC "-//W3C//DTD SVG 1.1//EN" "http://www.w3.org/Graphics/SVG/1.1/DTD/svg11.dtd">
<svg version="1.1" id="Layer_1" xmlns="http://www.w3.org/2000/svg" xmlns:xlink="http://www.w3.org/1999/xlink" x="0px" y="0px"
	 width="500px" height="500px" viewBox="50 50 500 500" enable-background="new 50 50 500 500" xml:space="preserve">
<g>
	<g>
		<defs>
			<path id="SVGID_2_" d="M635.722-55.468l140.255,242.946l-140.255,242.99H355.196l-140.275-242.99L355.196-55.468H635.722
				 M696.085-159.998H294.842L94.217,187.478l200.625,347.52h401.244l200.594-347.52L696.085-159.998L696.085-159.998z"/>
		</defs>
		<clipPath id="SVGID_3_">
			<use xlink:href="#SVGID_2_"  overflow="visible"/>
		</clipPath>
		
			<line clip-path="url(#SVGID_3_)" fill="none" stroke="#27BAE2" stroke-linecap="round" stroke-linejoin="round" stroke-miterlimit="10" x1="530.488" y1="-25.742" x2="645.13" y2="-185.941"/>
	</g>
	<g>
		<defs>
			<path id="SVGID_4_" d="M635.722-55.468l140.255,242.946l-140.255,242.99H355.196l-140.275-242.99L355.196-55.468H635.722
				 M696.085-159.998H294.842L94.217,187.478l200.625,347.52h401.244l200.594-347.52L696.085-159.998L696.085-159.998z"/>
		</defs>
		<clipPath id="SVGID_5_">
			<use xlink:href="#SVGID_4_"  overflow="visible"/>
		</clipPath>
		
			<line clip-path="url(#SVGID_5_)" fill="none" stroke="#27BAE2" stroke-linecap="round" stroke-linejoin="round" stroke-miterlimit="10" x1="585.917" y1="-103.2" x2="540.294" y2="-204.788"/>
	</g>
	<g>
		<defs>
			<path id="SVGID_6_" d="M635.722-55.468l140.255,242.946l-140.255,242.99H355.196l-140.275-242.99L355.196-55.468H635.722
				 M696.085-159.998H294.842L94.217,187.478l200.625,347.52h401.244l200.594-347.52L696.085-159.998L696.085-159.998z"/>
		</defs>
		<clipPath id="SVGID_7_">
			<use xlink:href="#SVGID_6_"  overflow="visible"/>
		</clipPath>
		
			<line clip-path="url(#SVGID_7_)" fill="none" stroke="#27BAE2" stroke-linecap="round" stroke-linejoin="round" stroke-miterlimit="10" x1="678.111" y1="53.179" x2="845.38" y2="-118.797"/>
	</g>
	<g>
		<defs>
			<path id="SVGID_8_" d="M635.722-55.468l140.255,242.946l-140.255,242.99H355.196l-140.275-242.99L355.196-55.468H635.722
				 M696.085-159.998H294.842L94.217,187.478l200.625,347.52h401.244l200.594-347.52L696.085-159.998L696.085-159.998z"/>
		</defs>
		<clipPath id="SVGID_9_">
			<use xlink:href="#SVGID_8_"  overflow="visible"/>
		</clipPath>
		
			<line clip-path="url(#SVGID_9_)" fill="none" stroke="#27BAE2" stroke-linecap="round" stroke-linejoin="round" stroke-miterlimit="10" x1="706.383" y1="313.504" x2="904.275" y2="325.281"/>
	</g>
	<g>
		<defs>
			<path id="SVGID_10_" d="M635.722-55.468l140.255,242.946l-140.255,242.99H355.196l-140.275-242.99L355.196-55.468H635.722
				 M696.085-159.998H294.842L94.217,187.478l200.625,347.52h401.244l200.594-347.52L696.085-159.998L696.085-159.998z"/>
		</defs>
		<clipPath id="SVGID_11_">
			<use xlink:href="#SVGID_10_"  overflow="visible"/>
		</clipPath>
		
			<line clip-path="url(#SVGID_11_)" fill="none" stroke="#27BAE2" stroke-linecap="round" stroke-linejoin="round" stroke-miterlimit="10" x1="638.064" y1="329.994" x2="866.579" y2="498.436"/>
	</g>
	<g>
		<defs>
			<path id="SVGID_12_" d="M635.722-55.468l140.255,242.946l-140.255,242.99H355.196l-140.275-242.99L355.196-55.468H635.722
				 M696.085-159.998H294.842L94.217,187.478l200.625,347.52h401.244l200.594-347.52L696.085-159.998L696.085-159.998z"/>
		</defs>
		<clipPath id="SVGID_13_">
			<use xlink:href="#SVGID_12_"  overflow="visible"/>
		</clipPath>
		
			<line clip-path="url(#SVGID_13_)" fill="none" stroke="#27BAE2" stroke-linecap="round" stroke-linejoin="round" stroke-miterlimit="10" x1="501.421" y1="432.472" x2="563.849" y2="533.774"/>
	</g>
	<g>
		<defs>
			<path id="SVGID_14_" d="M635.722-55.468l140.255,242.946l-140.255,242.99H355.196l-140.275-242.99L355.196-55.468H635.722
				 M696.085-159.998H294.842L94.217,187.478l200.625,347.52h401.244l200.594-347.52L696.085-159.998L696.085-159.998z"/>
		</defs>
		<clipPath id="SVGID_15_">
			<use xlink:href="#SVGID_14_"  overflow="visible"/>
		</clipPath>
		
			<line clip-path="url(#SVGID_15_)" fill="none" stroke="#27BAE2" stroke-linecap="round" stroke-linejoin="round" stroke-miterlimit="10" x1="214.921" y1="187.478" x2="94.217" y2="187.478"/>
	</g>
	<g>
		<defs>
			<path id="SVGID_16_" d="M635.722-55.468l140.255,242.946l-140.255,242.99H355.196l-140.275-242.99L355.196-55.468H635.722
				 M696.085-159.998H294.842L94.217,187.478l200.625,347.52h401.244l200.594-347.52L696.085-159.998L696.085-159.998z"/>
		</defs>
		<clipPath id="SVGID_17_">
			<use xlink:href="#SVGID_16_"  overflow="visible"/>
		</clipPath>
		
			<line clip-path="url(#SVGID_17_)" fill="none" stroke="#27BAE2" stroke-linecap="round" stroke-linejoin="round" stroke-miterlimit="10" x1="775.977" y1="187.478" x2="896.679" y2="187.478"/>
	</g>
	<g>
		<defs>
			<path id="SVGID_18_" d="M635.722-55.468l140.255,242.946l-140.255,242.99H355.196l-140.275-242.99L355.196-55.468H635.722
				 M696.085-159.998H294.842L94.217,187.478l200.625,347.52h401.244l200.594-347.52L696.085-159.998L696.085-159.998z"/>
		</defs>
		<clipPath id="SVGID_19_">
			<use xlink:href="#SVGID_18_"  overflow="visible"/>
		</clipPath>
		<g clip-path="url(#SVGID_19_)">
			<polyline fill="none" stroke="#27BAE2" stroke-linecap="round" stroke-linejoin="round" stroke-miterlimit="10" points="
				707.441,-183.736 277.186,561.519 599.866,375.188 922.538,188.871 245.811,-181.229 707.441,561.519 464.906,-183.736 
				62.052,188.871 492.293,561.519 			"/>
			<polyline fill="none" stroke="#27BAE2" stroke-linecap="round" stroke-linejoin="round" stroke-miterlimit="10" points="
				185.781,-25.427 492.293,188.859 194.522,418.331 			"/>
			
				<line fill="none" stroke="#27BAE2" stroke-linecap="round" stroke-linejoin="round" stroke-miterlimit="10" x1="707.441" y1="-183.736" x2="645.971" y2="348.572"/>
			<polyline fill="none" stroke="#27BAE2" stroke-linecap="round" stroke-linejoin="round" stroke-miterlimit="10" points="
				813.883,0.648 665.774,177.02 826.325,244.425 			"/>
			
				<line fill="none" stroke="#27BAE2" stroke-linecap="round" stroke-linejoin="round" stroke-miterlimit="10" x1="820.031" y1="320.267" x2="643.974" y2="341.68"/>
			
				<line fill="none" stroke="#27BAE2" stroke-linecap="round" stroke-linejoin="round" stroke-miterlimit="10" x1="262.7" y1="365.79" x2="153.967" y2="103.856"/>
			
				<line fill="none" stroke="#27BAE2" stroke-linecap="round" stroke-linejoin="round" stroke-miterlimit="10" x1="657.035" y1="480.418" x2="544.493" y2="561.519"/>
			
				<line fill="none" stroke="#27BAE2" stroke-linecap="round" stroke-linejoin="round" stroke-miterlimit="10" x1="589.852" y1="153.775" x2="680.543" y2="49.152"/>
		</g>
	</g>
	<g>
		<path id="SVGID_1_" fill="none" stroke="#27BAE2" stroke-linecap="round" stroke-linejoin="round" stroke-miterlimit="10" d="
			M635.722-55.468l140.255,242.946l-140.255,242.99H355.196l-140.275-242.99L355.196-55.468H635.722 M696.085-159.998H294.842
			L94.217,187.478l200.625,347.52h401.244l200.594-347.52L696.085-159.998L696.085-159.998z"/>
	</g>
</g>
</svg>
