<?xml version="1.0" encoding="utf-8"?>
<!-- Generator: Adobe Illustrator 16.0.3, SVG Export Plug-In . SVG Version: 6.00 Build 0)  -->
<!DOCTYPE svg PUBLIC "-//W3C//DTD SVG 1.1//EN" "http://www.w3.org/Graphics/SVG/1.1/DTD/svg11.dtd">
<svg version="1.1" id="Layer_1" xmlns="http://www.w3.org/2000/svg" xmlns:xlink="http://www.w3.org/1999/xlink" x="0px" y="0px"
	 width="120px" height="52px" viewBox="0 0 120 52" enable-background="new 0 0 120 52" xml:space="preserve">
<g>
	<path fill="#FFFFFF" d="M49.328,25.174V8.214h7.233c2.07,0,3.043,0.224,3.866,0.648c1.374,0.748,2.195,1.971,2.195,3.741
		c0,1.946-1.271,3.118-2.668,3.592v0.025c1.771,0.524,3.293,1.795,3.293,4.19c0,1.896-0.849,3.243-2.295,4.041
		c-0.872,0.475-1.821,0.725-4.066,0.725h-7.558V25.174z M58.257,11.729c-0.449-0.298-0.998-0.373-2.145-0.373h-3.068v3.617h3.043
		c1.296,0,1.82-0.05,2.294-0.474c0.325-0.3,0.524-0.799,0.524-1.397C58.905,12.479,58.631,11.979,58.257,11.729z M53.044,22.006
		h3.143c1.321,0,1.946-0.051,2.418-0.375c0.5-0.299,0.799-0.946,0.799-1.771c0-0.948-0.474-1.597-1.222-1.845
		c-0.449-0.125-1.023-0.176-1.996-0.176h-3.143L53.044,22.006L53.044,22.006z"/>
	<path fill="#FFFFFF" d="M75.438,22.207c0,0.748,0.102,0.998,0.625,0.998h0.174v2.096c-0.549,0.1-1.098,0.147-1.696,0.147
		c-1.047,0-2.021-0.198-2.271-1.071h-0.024c-0.55,0.598-1.422,1.098-3.345,1.098c-2.616,0-4.289-1.348-4.289-3.816
		c0-2.271,1.723-3.168,4.24-3.566l2.469-0.399c0.65-0.101,0.75-0.174,0.75-0.548v-0.2c0-0.897-0.5-1.396-1.747-1.396
		c-1.271,0-1.97,0.524-1.97,1.721l-3.367-0.025c-0.051-2.718,2.146-4.19,5.488-4.19c3.043,0,4.963,0.948,4.963,3.642V22.207z
		 M72.045,19.787c-0.275,0.1-0.499,0.225-1.771,0.475c-1.172,0.224-2.045,0.424-2.045,1.445c0,0.975,0.725,1.397,1.771,1.397
		c1.197,0,2.045-0.55,2.045-1.798V19.787z"/>
	<path fill="#FFFFFF" d="M88.195,22.207c0,0.748,0.101,0.998,0.623,0.998h0.175v2.096c-0.548,0.1-1.097,0.147-1.696,0.147
		c-1.047,0-2.021-0.198-2.27-1.071h-0.025c-0.548,0.598-1.422,1.098-3.343,1.098c-2.619,0-4.29-1.348-4.29-3.816
		c0-2.271,1.721-3.168,4.24-3.566l2.47-0.399c0.647-0.101,0.748-0.174,0.748-0.548v-0.2c0-0.897-0.499-1.396-1.746-1.396
		c-1.271,0-1.972,0.524-1.972,1.721l-3.367-0.025c-0.051-2.718,2.146-4.19,5.488-4.19c3.043,0,4.963,0.948,4.963,3.642v5.511H88.195
		L88.195,22.207z M84.803,19.787c-0.273,0.1-0.498,0.225-1.771,0.475c-1.173,0.224-2.046,0.424-2.046,1.445
		c0,0.975,0.725,1.397,1.771,1.397c1.197,0,2.045-0.55,2.045-1.798V19.787z"/>
	<path fill="#FFFFFF" d="M98.712,16.918c-0.872-0.798-2.045-1.297-3.217-1.297c-0.824,0-1.546,0.275-1.546,0.874
		c0,0.624,0.548,0.797,1.771,1.047l1.868,0.397c1.923,0.397,3.667,1.173,3.667,3.44c0,2.771-2.419,4.092-5.236,4.092
		c-2.72,0-5.016-1.196-6.086-2.668l2.295-1.846c0.723,0.998,2.145,1.82,3.791,1.82c1.221,0,1.846-0.398,1.846-1.048
		c0-0.673-0.725-0.798-1.521-0.948l-1.871-0.375c-1.197-0.225-2.22-0.624-2.943-1.246c-0.647-0.55-1.022-1.324-1.022-2.321
		c0-2.818,2.72-3.841,5.063-3.841c2.222,0,3.99,0.823,5.188,1.971L98.712,16.918z"/>
	<path fill="#FFFFFF" d="M106.725,11.779h-3.666V8.213h3.666V11.779z M106.725,25.174h-3.666V13.301h3.666V25.174z"/>
	<path fill="#FFFFFF" d="M120.406,22.231c-0.646,1.671-2.319,3.241-5.463,3.241c-3.74,0-6.285-2.17-6.285-6.186
		c0-4.017,2.544-6.286,6.285-6.286c3.293,0,4.99,1.771,5.588,3.691l-3.143,1.071c-0.352-1.295-1.173-2.02-2.445-2.02
		c-1.696,0-2.594,1.298-2.594,3.492c0,2.194,0.922,3.468,2.594,3.468c1.172,0,1.996-0.625,2.369-1.746L120.406,22.231z"/>
</g>
<g>
	<g>
		<path fill="#00C2E8" d="M26.249,5.067l6.799,11.776l-6.799,11.776H12.651l-6.8-11.776L12.65,5.067H26.249 M29.175,0H9.725
			L0,16.843l9.725,16.845h19.45l9.724-16.845L29.175,0L29.175,0z"/>
	</g>
</g>
</svg>
