<?xml version="1.0" encoding="utf-8"?>
<!-- Generator: Adobe Illustrator 16.0.3, SVG Export Plug-In . SVG Version: 6.00 Build 0)  -->
<!DOCTYPE svg PUBLIC "-//W3C//DTD SVG 1.1//EN" "http://www.w3.org/Graphics/SVG/1.1/DTD/svg11.dtd">
<svg version="1.1" id="Layer_1" xmlns="http://www.w3.org/2000/svg" xmlns:xlink="http://www.w3.org/1999/xlink" x="0px" y="0px"
	 width="48px" height="48px" viewBox="0 0 48 48" enable-background="new 0 0 48 48" xml:space="preserve">
<path fill="#899497" d="M48,9.114c-1.766,0.783-3.664,1.313-5.656,1.551c2.033-1.219,3.596-3.149,4.33-5.448
	c-1.902,1.128-4.01,1.948-6.253,2.39c-1.797-1.914-4.355-3.11-7.188-3.11c-5.438,0-9.848,4.409-9.848,9.847
	c0,0.772,0.087,1.523,0.255,2.245c-8.185-0.411-15.441-4.332-20.298-10.29C2.494,7.753,2.008,9.445,2.008,11.25
	c0,3.417,1.739,6.431,4.381,8.197c-1.614-0.051-3.133-0.494-4.46-1.232c-0.001,0.041-0.001,0.083-0.001,0.124
	c0,4.771,3.395,8.751,7.899,9.656C9.001,28.22,8.131,28.34,7.233,28.34c-0.635,0-1.251-0.062-1.853-0.176
	c1.253,3.912,4.89,6.759,9.199,6.839c-3.37,2.641-7.616,4.215-12.23,4.215c-0.795,0-1.579-0.046-2.35-0.137
	c4.358,2.794,9.535,4.424,15.096,4.424c18.114,0,28.019-15.006,28.019-28.019c0-0.427-0.009-0.852-0.028-1.274
	C45.011,12.824,46.68,11.089,48,9.114z"/>
</svg>
