<?xml version="1.0" encoding="utf-8"?>
<!-- Generator: Adobe Illustrator 16.0.3, SVG Export Plug-In . SVG Version: 6.00 Build 0)  -->
<!DOCTYPE svg PUBLIC "-//W3C//DTD SVG 1.1//EN" "http://www.w3.org/Graphics/SVG/1.1/DTD/svg11.dtd">
<svg version="1.1" id="Layer_1" xmlns="http://www.w3.org/2000/svg" xmlns:xlink="http://www.w3.org/1999/xlink" x="0px" y="0px"
	 width="36px" height="36px" viewBox="0 0 36 36" enable-background="new 0 0 36 36" xml:space="preserve">
<g>
	<g>
		<g>
			<path fill="#EB4646" d="M18.04,22.717l-7.38-7.381l7.38-7.38l7.378,7.38L18.04,22.717z M14.759,15.335l3.28,3.28l3.279-3.28
				l-3.279-3.28L14.759,15.335z"/>
		</g>
	</g>
	<g>
		<g>
			<path fill="#EB4646" d="M18.04,33.375L0,15.335l12.709-12.71l5.33,5.33l5.329-5.33l12.711,12.71L18.04,33.375z M4.1,15.335
				l13.939,13.94l13.939-13.94l-8.61-8.609l-3.279,3.279l5.329,5.33l-7.378,7.381l-7.38-7.381l5.33-5.33l-3.28-3.279L4.1,15.335z
				 M14.759,15.335l3.28,3.28l3.279-3.28l-3.279-3.28L14.759,15.335z"/>
		</g>
	</g>
</g>
</svg>
